HIERARCHY
ROOT Hips
{
	OFFSET -0.001795 -0.223333 0.028219
	CHANNELS 6 Xposition Yposition Zposition Zrotation Yrotation Xrotation 
	JOINT LeftUpLeg
	{
		OFFSET 0.069520 -0.091406 -0.006815
		CHANNELS 3 Zrotation Yrotation Xrotation
		JOINT LeftLeg
		{
			OFFSET 0.034277 -0.375199 -0.004496
			CHANNELS 3 Zrotation Yrotation Xrotation
			JOINT LeftFoot
			{
				OFFSET -0.013596 -0.397961 -0.043693
				CHANNELS 3 Zrotation Yrotation Xrotation
				JOINT LeftToe
				{
					OFFSET 0.026358 -0.055791 0.119288
					CHANNELS 3 Zrotation Yrotation Xrotation
					End Site
					{
						OFFSET 0.000000 0.000000 0.000000
					}
				}
			}
		}
	}
	JOINT RightUpLeg
	{
		OFFSET -0.067670 -0.090522 -0.004320
		CHANNELS 3 Zrotation Yrotation Xrotation
		JOINT RightLeg
		{
			OFFSET -0.038290 -0.382569 -0.008850
			CHANNELS 3 Zrotation Yrotation Xrotation
			JOINT RightFoot
			{
				OFFSET 0.015774 -0.398415 -0.042312
				CHANNELS 3 Zrotation Yrotation Xrotation
				JOINT RightToe
				{
					OFFSET -0.025372 -0.048144 0.123348
					CHANNELS 3 Zrotation Yrotation Xrotation
					End Site
					{
						OFFSET 0.000000 0.000000 0.000000
					}
				}
			}
		}
	}
	JOINT Spine
	{
		OFFSET -0.002533 0.108963 -0.026696
		CHANNELS 3 Zrotation Yrotation Xrotation
		JOINT Spine1
		{
			OFFSET 0.005487 0.135180 0.001092
			CHANNELS 3 Zrotation Yrotation Xrotation
			JOINT Spine2
			{
				OFFSET 0.001457 0.052922 0.025425
				CHANNELS 3 Zrotation Yrotation Xrotation
				JOINT Neck
				{
					OFFSET -0.002778 0.213870 -0.042857
					CHANNELS 3 Zrotation Yrotation Xrotation
					JOINT Head
					{
						OFFSET 0.005152 0.064970 0.051349
						CHANNELS 3 Zrotation Yrotation Xrotation
						End Site
						{
							OFFSET 0.000000 0.000000 0.000000
						}
					}
				}
				JOINT LeftShoulder
				{
					OFFSET 0.078845 0.121749 -0.034090
					CHANNELS 3 Zrotation Yrotation Xrotation
					JOINT LeftArm
					{
						OFFSET 0.090977 0.030469 -0.008868
						CHANNELS 3 Zrotation Yrotation Xrotation
						JOINT LeftForeArm
						{
							OFFSET 0.259612 -0.012772 -0.027456
							CHANNELS 3 Zrotation Yrotation Xrotation
							JOINT LeftHand
							{
								OFFSET 0.249234 0.008986 -0.001171
								CHANNELS 3 Zrotation Yrotation Xrotation
								End Site
								{
									OFFSET 0.000000 0.000000 0.000000
								}
							}
						}
					}
				}
				JOINT RightShoulder
				{
					OFFSET -0.081759 0.118833 -0.038615
					CHANNELS 3 Zrotation Yrotation Xrotation
					JOINT RightArm
					{
						OFFSET -0.096012 0.032551 -0.009143
						CHANNELS 3 Zrotation Yrotation Xrotation
						JOINT RightForeArm
						{
							OFFSET -0.253742 -0.013329 -0.021401
							CHANNELS 3 Zrotation Yrotation Xrotation
							JOINT RightHand
							{
								OFFSET -0.255298 0.007772 -0.005559
								CHANNELS 3 Zrotation Yrotation Xrotation
								End Site
								{
									OFFSET 0.000000 0.000000 0.000000
								}
							}
						}
					}
				}
			}
		}
	}
}
MOTION
Frames: 15
Frame Time: 0.050000
0.007142 0.951017 -0.020130 -7.927963 1.980970 10.427095 11.547428 -0.442939 -6.752255 5.333234 0.010771 -6.949759 -0.332516 4.762228 13.742735 0.000000 0.000000 0.000000 1.168862 1.476928 -13.886216 -1.513210 0.374761 4.179832 -1.003542 -6.150595 10.180904 0.000000 0.000000 0.000000 -5.202238 0.233844 -0.313528 -1.480213 0.668454 0.619394 3.604510 -1.741585 -0.733408 -0.169972 0.815386 -11.005485 0.000000 0.000000 0.000000 -5.845426 -21.791418 8.590217 -13.254467 -40.638270 1.517818 28.512129 -42.383356 -9.090660 0.000000 0.000000 0.000000 5.226214 30.047555 11.744152 1.176803 42.886825 -2.171664 -18.324402 54.336922 -7.234160 0.000000 0.000000 0.000000 
0.007558 0.951333 -0.020758 -7.961833 1.905637 10.476227 11.512831 -0.439423 -6.978402 5.433492 -0.005477 -6.802880 -0.397353 4.653043 13.755103 0.000000 0.000000 0.000000 1.462611 1.494759 -13.849343 -1.784700 0.405216 4.032268 -0.786319 -5.823575 10.503881 0.000000 0.000000 0.000000 -5.435805 0.245497 -0.134528 -1.500937 0.680776 0.499856 3.669510 -1.640641 -0.505392 -0.244833 0.885962 -11.371724 0.000000 0.000000 0.000000 -5.441737 -21.780570 8.524087 -12.502870 -40.435474 1.281772 29.223264 -41.592756 -9.182990 0.000000 0.000000 0.000000 5.105759 30.403242 11.887816 0.196536 43.351144 -2.525582 -20.457569 52.666096 -7.983381 0.000000 0.000000 0.000000 
0.007924 0.951775 -0.021362 -8.005255 1.664349 10.355078 11.560185 -0.429647 -6.713721 5.483700 0.009991 -7.038183 -0.545474 4.438320 13.918253 0.000000 0.000000 0.000000 1.596617 1.491303 -13.709959 -1.849067 0.408517 3.924736 -0.585696 -5.530939 10.751514 0.000000 0.000000 0.000000 -5.654457 0.255564 0.202182 -1.625162 0.742902 0.345676 3.895153 -1.274354 -0.338178 -0.382154 1.002227 -11.698003 0.000000 0.000000 0.000000 -5.063831 -21.698350 8.412737 -11.971807 -40.231521 1.107164 29.803255 -41.302351 -9.357750 0.000000 0.000000 0.000000 4.956168 30.758400 12.042785 -1.080421 44.426995 -3.025630 -21.759275 50.259871 -8.116608 0.000000 0.000000 0.000000 
0.008189 0.951983 -0.022097 -7.934310 1.569466 10.312566 11.531077 -0.425644 -6.723290 5.619195 0.012030 -7.133927 -0.804170 4.134570 14.282130 0.000000 0.000000 0.000000 1.675777 1.475781 -13.517420 -2.002824 0.414675 3.655450 -0.331461 -5.171217 11.172730 0.000000 0.000000 0.000000 -5.896178 0.267538 0.386938 -1.716834 0.784358 0.463217 3.935595 -0.798483 -0.329705 -0.313673 1.022188 -12.266242 0.000000 0.000000 0.000000 -4.454738 -21.667894 8.265630 -11.361605 -40.418964 0.943599 30.289172 -40.779878 -9.458701 0.000000 0.000000 0.000000 4.541829 31.195865 12.212496 -2.052067 45.742160 -3.448138 -22.705109 47.383403 -7.924022 0.000000 0.000000 0.000000 
0.008393 0.952182 -0.022966 -7.923465 1.588323 10.172183 11.644481 -0.418638 -6.933304 5.537268 -0.013119 -6.787284 -1.019551 3.693366 13.966172 0.000000 0.000000 0.000000 1.642397 1.460918 -13.401505 -1.907248 0.407879 3.765026 -0.190003 -4.838320 11.018460 0.000000 0.000000 0.000000 -6.146790 0.278272 0.563445 -1.886235 0.869532 0.056687 3.924664 -0.262118 -0.014791 -0.161622 0.982727 -12.493759 0.000000 0.000000 0.000000 -3.822812 -21.675851 8.121753 -11.126268 -40.808004 0.870994 31.232961 -40.676160 -9.859377 0.000000 0.000000 0.000000 3.927363 31.974225 12.495850 -3.196965 47.017042 -3.952808 -23.261654 44.103848 -7.456064 0.000000 0.000000 0.000000 
0.008549 0.952317 -0.023909 -7.989065 1.996880 10.027484 11.723373 -0.424872 -7.207572 5.601779 -0.024478 -6.665037 -1.536945 2.912814 13.925452 0.000000 0.000000 0.000000 1.766577 1.443448 -13.187703 -1.879995 0.400365 3.691903 -0.384769 -5.164172 11.013950 0.000000 0.000000 0.000000 -6.136119 0.275504 0.768129 -2.060865 0.948100 0.146212 3.828907 0.300480 -0.112901 -0.227762 1.107544 -12.877179 0.000000 0.000000 0.000000 -3.290002 -21.834098 8.032390 -10.684321 -41.355102 0.753021 32.107760 -40.358870 -10.200328 0.000000 0.000000 0.000000 3.166994 32.778346 12.777192 -4.289577 48.311685 -4.432026 -23.823901 40.730836 -6.940126 0.000000 0.000000 0.000000 
0.008741 0.952399 -0.024795 -7.934323 2.585184 9.986046 11.803474 -0.438232 -7.614831 5.599777 -0.043318 -6.394520 -1.974123 2.162451 13.570386 0.000000 0.000000 0.000000 1.819252 1.452525 -13.262273 -1.836308 0.407498 3.934255 -0.576116 -5.319044 10.537120 0.000000 0.000000 0.000000 -6.290278 0.280178 0.837548 -2.102137 0.971757 -0.312514 3.628333 0.950831 0.322392 -0.291324 1.260333 -13.393772 0.000000 0.000000 0.000000 -2.581153 -22.132212 7.962870 -10.384788 -42.343176 0.646963 32.722013 -39.278277 -10.257771 0.000000 0.000000 0.000000 2.125450 33.553006 12.973256 -5.463626 49.734767 -4.971052 -24.285473 37.333892 -6.376759 0.000000 0.000000 0.000000 
0.008994 0.952630 -0.025532 -7.925765 3.500244 9.969548 11.829780 -0.465512 -7.964358 5.682371 -0.037654 -6.459000 -2.716155 1.168718 13.769041 0.000000 0.000000 0.000000 1.854969 1.428766 -13.072623 -1.707674 0.377614 3.709256 -1.086769 -6.191734 10.449880 0.000000 0.000000 0.000000 -6.165336 0.270261 0.882637 -2.276977 1.050786 -0.414009 3.554272 1.606270 0.427242 -0.374032 1.429404 -13.787972 0.000000 0.000000 0.000000 -2.223556 -22.523425 7.963310 -9.704199 -43.178356 0.409970 33.241767 -38.437181 -10.344218 0.000000 0.000000 0.000000 1.546784 34.578158 13.395697 -6.825604 50.612766 -5.519010 -24.460644 33.699132 -5.673769 0.000000 0.000000 0.000000 
0.009428 0.952816 -0.026069 -7.722544 4.222855 9.945543 11.671917 -0.491316 -8.187874 5.668975 -0.034966 -6.438353 -3.210936 0.390417 13.579635 0.000000 0.000000 0.000000 1.703486 1.390387 -12.852077 -1.623234 0.354853 3.493379 -1.346418 -6.565373 10.258994 0.000000 0.000000 0.000000 -6.102174 0.263861 0.874922 -2.465170 1.135969 -0.498379 3.398601 2.369488 0.392340 -0.319441 1.492260 -13.807000 0.000000 0.000000 0.000000 -1.890936 -22.872833 7.949861 -9.473718 -43.641952 0.286418 33.282251 -37.820600 -10.322934 0.000000 0.000000 0.000000 0.804535 35.507074 13.718043 -7.885075 51.637562 -5.965042 -24.272239 30.589094 -4.998067 0.000000 0.000000 0.000000 
0.009942 0.953179 -0.026394 -7.455266 5.155073 9.851817 11.368334 -0.523836 -8.361337 5.759966 -0.012094 -6.726226 -3.978696 -0.575885 13.907491 0.000000 0.000000 0.000000 1.474679 1.329323 -12.464437 -1.504127 0.317744 3.068642 -1.953694 -7.689068 10.401470 0.000000 0.000000 0.000000 -5.979319 0.251262 0.803552 -2.604629 1.194824 -0.369575 3.471354 3.239884 0.289002 -0.115873 1.523000 -14.350402 0.000000 0.000000 0.000000 -2.006825 -23.094980 7.913388 -9.444868 -44.221913 0.222174 33.122560 -37.588514 -10.357382 0.000000 0.000000 0.000000 0.126039 36.225625 13.968911 -8.201785 52.161101 -6.015836 -23.938577 28.066430 -4.422502 0.000000 0.000000 0.000000 
0.010486 0.953263 -0.026507 -7.130333 6.143969 9.816454 10.987077 -0.559596 -8.369866 5.886778 0.018776 -7.129799 -4.593804 -1.356400 14.060857 0.000000 0.000000 0.000000 1.239250 1.261160 -11.998447 -1.532053 0.292296 2.449355 -2.428820 -8.518467 10.454534 0.000000 0.000000 0.000000 -5.646983 0.228927 0.471518 -2.820701 1.288353 -0.297368 3.233163 4.115515 0.328351 0.187158 1.457129 -14.284826 0.000000 0.000000 0.000000 -1.873863 -23.229544 7.814357 -10.023336 -44.621350 0.324974 32.930184 -38.094592 -10.626566 0.000000 0.000000 0.000000 -0.292517 36.763348 14.226010 -8.023419 52.360597 -5.806898 -23.425434 25.821878 -3.889771 0.000000 0.000000 0.000000 
0.010899 0.953210 -0.026479 -6.850781 7.177485 9.854687 10.622173 -0.595585 -8.549648 5.853717 0.043518 -7.380240 -5.254624 -2.250164 14.121260 0.000000 0.000000 0.000000 0.878615 1.203934 -11.703188 -1.409101 0.263852 2.175707 -3.099679 -9.748769 10.637271 0.000000 0.000000 0.000000 -5.312528 0.210457 0.278200 -2.961809 1.343660 -0.103893 3.187851 4.756784 0.193266 0.103186 1.684382 -15.153877 0.000000 0.000000 0.000000 -1.977369 -23.210185 7.700031 -10.226751 -45.049420 0.336080 32.243410 -38.218872 -10.555138 0.000000 0.000000 0.000000 -0.243591 37.145629 14.553047 -7.776235 52.364113 -5.582980 -22.998332 24.049894 -3.487296 0.000000 0.000000 0.000000 
0.011204 0.953250 -0.026517 -6.566193 8.022158 9.868713 10.154263 -0.623884 -8.679836 5.982750 0.060479 -7.625469 -5.590097 -2.597262 14.252611 0.000000 0.000000 0.000000 0.661971 1.161265 -11.445567 -1.527611 0.269035 1.934253 -3.539496 -10.533095 10.817267 0.000000 0.000000 0.000000 -5.073236 0.197055 0.132446 -2.990456 1.356203 -0.270111 3.211898 5.256150 0.484613 0.379361 1.643748 -15.501251 0.000000 0.000000 0.000000 -2.077402 -23.283443 7.638994 -10.989927 -45.052294 0.513713 32.320929 -38.872895 -10.918640 0.000000 0.000000 0.000000 -0.088439 37.222394 14.747830 -7.057115 52.391841 -5.204019 -22.703451 22.932928 -3.239625 0.000000 0.000000 0.000000 
0.011461 0.953220 -0.026683 -6.272944 8.522942 9.800363 9.793793 -0.641077 -8.902052 6.082062 0.033216 -7.296274 -5.928956 -3.088074 14.222383 0.000000 0.000000 0.000000 0.397697 1.133258 -11.351837 -1.360460 0.250609 2.005342 -3.950501 -11.302312 11.048564 0.000000 0.000000 0.000000 -4.862540 0.186359 0.130653 -3.011440 1.364577 -0.308421 3.614242 5.698097 0.720270 0.486382 1.662446 -15.741063 0.000000 0.000000 0.000000 -2.348331 -22.517719 7.310306 -11.744281 -45.840689 0.734256 31.613012 -39.607524 -10.954361 0.000000 0.000000 0.000000 -0.258771 36.806579 14.572102 -6.240477 52.653513 -4.821873 -22.569070 22.553925 -3.142656 0.000000 0.000000 0.000000 
0.011781 0.953490 -0.027033 -5.991760 9.278564 9.884932 9.469875 -0.670209 -9.259909 6.100516 0.027980 -7.201569 -6.294138 -3.489993 14.372783 0.000000 0.000000 0.000000 0.145976 1.109831 -11.323022 -1.325524 0.237668 1.807098 -4.341987 -11.982373 11.145480 0.000000 0.000000 0.000000 -4.622239 0.176255 0.036487 -2.809181 1.261134 -0.062072 3.575014 5.862833 0.584644 0.948525 1.442457 -15.726675 0.000000 0.000000 0.000000 -2.806854 -22.076981 7.102082 -12.491168 -46.125760 0.982854 31.541146 -40.841016 -11.377486 0.000000 0.000000 0.000000 -0.028496 36.302660 14.513138 -4.889830 52.108421 -4.154191 -22.854466 22.891511 -3.228425 0.000000 0.000000 0.000000 
